<svg width="77" height="20" viewBox="0 0 77 20" fill="none" xmlns="http://www.w3.org/2000/svg">
<path d="M6.28977 19.2557C4.94886 19.2557 3.83807 18.983 2.95739 18.4375C2.0767 17.8864 1.45739 17.108 1.09943 16.1023C0.747159 15.0909 0.6875 13.8949 0.920455 12.5142C1.14773 11.1676 1.60511 9.9858 2.29261 8.96875C2.9858 7.9517 3.85511 7.15909 4.90057 6.59091C5.94602 6.02273 7.1108 5.73864 8.39489 5.73864C9.25852 5.73864 10.0398 5.87784 10.7386 6.15625C11.4432 6.42898 12.0284 6.84375 12.4943 7.40057C12.9602 7.9517 13.2784 8.64205 13.4489 9.47159C13.625 10.3011 13.6222 11.2727 13.4403 12.3864L13.2784 13.3835H2.23295L2.58239 11.1335H10.2188C10.304 10.6108 10.2699 10.1477 10.1165 9.74432C9.96307 9.34091 9.70739 9.02557 9.34943 8.7983C8.99148 8.56534 8.55114 8.44886 8.02841 8.44886C7.49432 8.44886 6.99432 8.57955 6.52841 8.84091C6.0625 9.10227 5.67045 9.44602 5.35227 9.87216C5.03977 10.2926 4.83807 10.75 4.74716 11.2443L4.34659 13.4773C4.23295 14.1648 4.25568 14.7358 4.41477 15.1903C4.57955 15.6449 4.86364 15.9858 5.26705 16.2131C5.67045 16.4347 6.18182 16.5455 6.80114 16.5455C7.20455 16.5455 7.58239 16.4886 7.93466 16.375C8.29261 16.2614 8.6108 16.0938 8.8892 15.8722C9.16761 15.6449 9.39489 15.3636 9.57102 15.0284L12.8864 15.25C12.5795 16.0568 12.1136 16.7614 11.4886 17.3636C10.8636 17.9602 10.1108 18.4261 9.23011 18.7614C8.35511 19.0909 7.375 19.2557 6.28977 19.2557ZM26.3075 6.61648C26.3359 5.90625 26.1286 5.35795 25.6854 4.97159C25.2479 4.58523 24.5859 4.39204 23.6996 4.39204C23.0973 4.39204 22.5746 4.47727 22.1314 4.64773C21.6882 4.8125 21.3331 5.04261 21.0661 5.33807C20.8047 5.62784 20.6428 5.96307 20.5803 6.34375C20.5178 6.65625 20.5376 6.92898 20.6399 7.16193C20.7479 7.39489 20.9155 7.59659 21.1428 7.76705C21.3757 7.93182 21.6513 8.0767 21.9695 8.2017C22.2876 8.32102 22.6257 8.4233 22.9837 8.50852L24.4837 8.88352C25.2166 9.05398 25.8757 9.28125 26.4609 9.56534C27.0518 9.84943 27.5462 10.1989 27.9439 10.6136C28.3473 11.0284 28.6314 11.517 28.7962 12.0795C28.9609 12.642 28.9837 13.2869 28.8643 14.0142C28.6825 15.0824 28.2592 16.0085 27.5945 16.7926C26.9297 17.571 26.0575 18.1761 24.978 18.608C23.8984 19.0341 22.6484 19.2472 21.228 19.2472C19.8189 19.2472 18.6286 19.0312 17.657 18.5994C16.6854 18.1676 15.978 17.5284 15.5348 16.6818C15.0973 15.8295 14.9666 14.7756 15.1428 13.5199H18.7138C18.6513 14.1051 18.7365 14.5937 18.9695 14.9858C19.2081 15.3722 19.5632 15.6648 20.0348 15.8636C20.5064 16.0568 21.0604 16.1534 21.6967 16.1534C22.3274 16.1534 22.8871 16.0625 23.3757 15.8807C23.87 15.6989 24.2706 15.446 24.5774 15.1222C24.8842 14.7983 25.0717 14.4261 25.1399 14.0057C25.2081 13.6136 25.1484 13.2841 24.9609 13.017C24.7734 12.75 24.4723 12.5227 24.0575 12.3352C23.6484 12.142 23.1399 11.9716 22.532 11.8239L20.7081 11.3466C19.299 10.9886 18.2337 10.429 17.5121 9.66761C16.7905 8.90625 16.532 7.88068 16.7365 6.59091C16.9183 5.53409 17.3587 4.6108 18.0575 3.82102C18.7621 3.02557 19.6484 2.40909 20.7166 1.97159C21.7905 1.52841 22.9638 1.30682 24.2365 1.30682C25.532 1.30682 26.6257 1.53125 27.5178 1.98011C28.4098 2.4233 29.0604 3.04261 29.4695 3.83807C29.8786 4.63352 30.0036 5.55966 29.8445 6.61648H26.3075ZM35.3608 11.4318L34.0994 19H30.4773L33.375 1.54545H36.8949L35.804 8.21875H35.9489C36.3693 7.44602 36.946 6.84091 37.679 6.40341C38.4119 5.96023 39.2784 5.73864 40.2784 5.73864C41.1875 5.73864 41.946 5.9375 42.554 6.33523C43.1676 6.72727 43.6023 7.29261 43.858 8.03125C44.1136 8.7642 44.1562 9.64205 43.9858 10.6648L42.5881 19H38.9659L40.2443 11.3125C40.375 10.5057 40.2699 9.87784 39.929 9.42898C39.5938 8.98011 39.0597 8.75568 38.3267 8.75568C37.8324 8.75568 37.3778 8.8608 36.9631 9.07102C36.5483 9.28125 36.1989 9.58807 35.9148 9.99148C35.6364 10.3892 35.4517 10.8693 35.3608 11.4318ZM51.3601 19.2557C50.0192 19.2557 48.9084 18.983 48.0277 18.4375C47.147 17.8864 46.5277 17.108 46.1697 16.1023C45.8175 15.0909 45.7578 13.8949 45.9908 12.5142C46.218 11.1676 46.6754 9.9858 47.3629 8.96875C48.0561 7.9517 48.9254 7.15909 49.9709 6.59091C51.0163 6.02273 52.1811 5.73864 53.4652 5.73864C54.3288 5.73864 55.1101 5.87784 55.8089 6.15625C56.5135 6.42898 57.0987 6.84375 57.5646 7.40057C58.0305 7.9517 58.3487 8.64205 58.5192 9.47159C58.6953 10.3011 58.6925 11.2727 58.5107 12.3864L58.3487 13.3835H47.3033L47.6527 11.1335H55.2891C55.3743 10.6108 55.3402 10.1477 55.1868 9.74432C55.0334 9.34091 54.7777 9.02557 54.4197 8.7983C54.0618 8.56534 53.6214 8.44886 53.0987 8.44886C52.5646 8.44886 52.0646 8.57955 51.5987 8.84091C51.1328 9.10227 50.7408 9.44602 50.4226 9.87216C50.1101 10.2926 49.9084 10.75 49.8175 11.2443L49.4169 13.4773C49.3033 14.1648 49.326 14.7358 49.4851 15.1903C49.6499 15.6449 49.9339 15.9858 50.3374 16.2131C50.7408 16.4347 51.2521 16.5455 51.8714 16.5455C52.2749 16.5455 52.6527 16.4886 53.005 16.375C53.3629 16.2614 53.6811 16.0938 53.9595 15.8722C54.2379 15.6449 54.4652 15.3636 54.6413 15.0284L57.9567 15.25C57.6499 16.0568 57.1839 16.7614 56.5589 17.3636C55.9339 17.9602 55.1811 18.4261 54.3004 18.7614C53.4254 19.0909 52.4453 19.2557 51.3601 19.2557ZM66.3239 1.54545L63.4261 19H59.7955L62.6932 1.54545H66.3239ZM75.5646 5.90909L75.1129 8.63636H67.0334L67.4851 5.90909H75.5646ZM67.1442 19L69.4879 4.96307C69.6413 4.0142 69.9538 3.22727 70.4254 2.60227C70.9027 1.97727 71.4908 1.50852 72.1896 1.19602C72.8942 0.883522 73.6555 0.727272 74.4737 0.727272C75.0305 0.727272 75.5334 0.769886 75.9822 0.855114C76.4368 0.940341 76.7663 1.01705 76.9709 1.08523L75.8885 3.8125C75.7521 3.76705 75.5845 3.72443 75.3857 3.68466C75.1868 3.64489 74.9766 3.625 74.755 3.625C74.2266 3.625 73.8374 3.75 73.5874 4C73.343 4.24432 73.1783 4.58807 73.093 5.03125L70.7663 19H67.1442Z" fill="#A3ADFF"/>
</svg>
