<svg width="40" height="41" viewBox="0 0 40 41" fill="none" xmlns="http://www.w3.org/2000/svg">
<path d="M11.2495 10.3203L11.2495 34.4297C11.2495 36.4015 12.848 38 14.8198 38L25.1792 38C27.151 38 28.7495 36.4015 28.7495 34.4297L28.7495 10.3203C28.7495 8.34848 27.151 6.75 25.1792 6.75L14.8198 6.75C12.848 6.75 11.2495 8.34848 11.2495 10.3203Z" stroke="#333333" stroke-width="1.04741" stroke-miterlimit="10" stroke-linecap="square"/>
<path d="M14.9995 29.3816L14.9995 34.1223C14.9995 34.1939 15.1564 34.252 15.35 34.252L24.649 34.252C24.8426 34.252 24.9995 34.1939 24.9995 34.1223L24.9995 29.3816C24.9995 29.31 24.8426 29.252 24.649 29.252L15.35 29.252C15.1564 29.252 14.9995 29.31 14.9995 29.3816Z" fill="#333333" stroke="#333333" stroke-width="0.698276" stroke-miterlimit="10" stroke-linecap="square"/>
<path d="M17.083 3.00195L22.9158 3.00195" stroke="#333333" stroke-width="1.04741" stroke-miterlimit="10" stroke-linecap="round"/>
</svg>
