<svg width="32" height="32" viewBox="0 0 32 32" fill="none" xmlns="http://www.w3.org/2000/svg">
<path d="M4.0999 12.0571L6.4119 26.5191C6.47794 26.933 6.68286 27.3091 6.99014 27.5803C7.29742 27.8515 7.68711 28.0002 8.0898 28H23.91C24.3124 27.9998 24.7017 27.8509 25.0086 27.5797C25.3155 27.3085 25.5202 26.9327 25.5862 26.5191L27.8999 12.0571M4.0999 12.0571H9.1999M4.0999 12.0571H2.3999M27.8999 12.0571H22.7999M27.8999 12.0571H29.5999M9.1999 12.0571L10.8999 3.2M9.1999 12.0571H22.7999M22.7999 12.0571L21.0999 3.2M10.8999 19.1429V20.9143M21.0999 19.1429V20.9143M15.9999 19.1429V20.9143" stroke="#333333" stroke-width="2" stroke-linecap="round" stroke-linejoin="round"/>
</svg>
