<svg width="32" height="32" viewBox="0 0 32 32" fill="none" xmlns="http://www.w3.org/2000/svg">
<path d="M27.7867 6.14715C27.1057 5.46582 26.2971 4.92534 25.4071 4.55659C24.5172 4.18784 23.5633 3.99805 22.6 3.99805C21.6367 3.99805 20.6828 4.18784 19.7929 4.55659C18.9029 4.92534 18.0943 5.46582 17.4133 6.14715L16 7.56048L14.5867 6.14715C13.2111 4.77156 11.3454 3.99876 9.4 3.99876C7.45462 3.99876 5.58892 4.77156 4.21333 6.14715C2.83774 7.52274 2.06494 9.38844 2.06494 11.3338C2.06494 13.2792 2.83774 15.1449 4.21333 16.5205L5.62666 17.9338L16 28.3071L26.3733 17.9338L27.7867 16.5205C28.468 15.8395 29.0085 15.0309 29.3772 14.141C29.746 13.251 29.9358 12.2971 29.9358 11.3338C29.9358 10.3705 29.746 9.41662 29.3772 8.52667C29.0085 7.63673 28.468 6.82816 27.7867 6.14715V6.14715Z" stroke="#333333" stroke-linecap="round" stroke-linejoin="round"/>
</svg>
