<svg width="32" height="10" viewBox="0 0 32 10" fill="none" xmlns="http://www.w3.org/2000/svg">
<path d="M23.26 0.401477C22.5167 0.13087 21.731 -0.00503516 20.94 0.000142555C18.38 0.000142555 16.5733 1.29081 16.56 3.14014C16.544 4.50014 17.8453 5.26548 18.828 5.72148C19.8373 6.18814 20.1747 6.48148 20.172 6.90148C20.1653 7.53748 19.3653 7.82548 18.6227 7.82548C17.6013 7.82548 17.0413 7.68281 16.1813 7.32548L15.8627 7.17748L15.5013 9.30814C16.1227 9.56814 17.2427 9.79081 18.4013 9.80814C21.1227 9.80814 22.9013 8.52681 22.9227 6.55614C22.944 5.47214 22.2427 4.64948 20.7613 3.97214C19.8627 3.53214 19.3027 3.23748 19.3027 2.79081C19.3027 2.39614 19.7813 1.97481 20.7813 1.97481C21.4464 1.95886 22.1073 2.08288 22.7213 2.33881L22.9613 2.44681L23.3227 0.388143L23.26 0.401477ZM29.904 0.17481H27.904C27.2813 0.17481 26.816 0.344143 26.5427 0.962809L22.696 9.67481H25.4173L25.9613 8.24814L29.2813 8.25081C29.3627 8.58414 29.6013 9.67481 29.6013 9.67481H32L29.904 0.17481ZM12.88 0.0948094H15.4707L13.8507 9.60014H11.2587L12.88 0.0921429V0.0948094ZM6.29467 5.33348L6.564 6.65348L9.09867 0.17481H11.844L7.76267 9.66148H5.024L2.784 1.62681C2.74787 1.4944 2.66185 1.38115 2.544 1.31081C1.73836 0.892325 0.883805 0.575671 0 0.368143L0.0333333 0.168143H4.208C4.77333 0.189476 5.22933 0.368143 5.38533 0.973477L6.29467 5.33748V5.33348ZM26.7053 6.30281L27.7387 3.64414C27.7253 3.67081 27.952 3.09481 28.0827 2.73748L28.26 3.55748L28.8587 6.30014H26.7053V6.30281Z" fill="white"/>
</svg>
