<svg width="43" height="32" viewBox="0 0 43 32" fill="none" xmlns="http://www.w3.org/2000/svg">
<g clip-path="url(#clip0_6691_2429)">
<path d="M22.3852 13.2583C22.3852 14.5125 21.6074 15.2344 20.237 15.2344H18.437V11.2823H20.2444C21.6074 11.2823 22.3852 11.9969 22.3852 13.2583ZM25.9037 17.8229C25.9037 18.4281 26.437 18.8219 27.2741 18.8219C28.3407 18.8219 29.1407 18.1583 29.1407 17.225V16.6635L27.4 16.7729C26.4148 16.8385 25.9037 17.1958 25.9037 17.8229ZM42.6667 3.09375V28.7604C42.6667 30.6927 41.0741 32.2604 39.1111 32.2604H3.55556C1.59259 32.2604 0 30.6927 0 28.7604V3.09375C0 1.16146 1.59259 -0.40625 3.55556 -0.40625H39.1111C41.0741 -0.40625 42.6667 1.16146 42.6667 3.09375ZM9.46667 11.7125C10.0889 11.7635 10.7111 11.4063 11.1037 10.9542C11.4889 10.4875 11.7407 9.86042 11.6741 9.22604C11.1259 9.24792 10.4444 9.58333 10.0519 10.05C9.6963 10.451 9.39259 11.1 9.46667 11.7125ZM13.9556 17.1448C13.9407 17.1302 12.5037 16.5906 12.4889 14.9573C12.4741 13.5938 13.6222 12.9375 13.6741 12.901C13.0222 11.9531 12.0148 11.851 11.6667 11.8292C10.763 11.7781 9.99259 12.3323 9.56296 12.3323C9.12593 12.3323 8.47407 11.851 7.76296 11.8656C6.83704 11.8802 5.97037 12.3979 5.5037 13.2219C4.53333 14.8698 5.25185 17.3052 6.19259 18.6469C6.65185 19.3104 7.20741 20.0396 7.93333 20.0104C8.62222 19.9813 8.8963 19.5729 9.72593 19.5729C10.563 19.5729 10.8 20.0104 11.5259 20.0031C12.2815 19.9885 12.7481 19.3396 13.2148 18.676C13.7259 17.9177 13.9407 17.1885 13.9556 17.1448ZM23.9852 13.251C23.9852 11.3115 22.6148 9.98438 20.6593 9.98438H16.8667V19.9302H18.437V16.5323H20.6074C22.5926 16.5323 23.9852 15.1906 23.9852 13.251ZM30.6519 14.9792C30.6519 13.5427 29.4815 12.6167 27.6889 12.6167C26.0222 12.6167 24.7926 13.5573 24.7481 14.8406H26.163C26.2815 14.2281 26.8593 13.8271 27.6444 13.8271C28.6074 13.8271 29.1407 14.2646 29.1407 15.0813V15.6281L27.1852 15.7448C25.363 15.8542 24.3778 16.5906 24.3778 17.8667C24.3778 19.1573 25.3926 20.0104 26.8519 20.0104C27.837 20.0104 28.7481 19.5219 29.163 18.7417H29.1926V19.9375H30.6444V14.9792H30.6519ZM38.2222 12.7115H36.6296L34.7852 18.5885H34.7556L32.9111 12.7115H31.2593L33.9185 19.9521L33.7778 20.3896C33.5407 21.1333 33.1481 21.425 32.4519 21.425C32.3259 21.425 32.0889 21.4104 31.9926 21.4031V22.599C32.0815 22.6281 32.4741 22.6354 32.5926 22.6354C34.1259 22.6354 34.8444 22.0594 35.4741 20.3167L38.2222 12.7115Z" fill="black"/>
</g>
<defs>
<clipPath id="clip0_6691_2429">
<rect width="42.6667" height="32" fill="white"/>
</clipPath>
</defs>
</svg>
