<svg width="32" height="32" viewBox="0 0 32 32" fill="none" xmlns="http://www.w3.org/2000/svg">
<path d="M6.66659 14.6667C6.31296 14.6667 5.97382 14.8071 5.72378 15.0572C5.47373 15.3072 5.33325 15.6464 5.33325 16C5.33325 16.3536 5.47373 16.6928 5.72378 16.9428C5.97382 17.1929 6.31296 17.3333 6.66659 17.3333V14.6667ZM25.3333 17.3333C25.6869 17.3333 26.026 17.1929 26.2761 16.9428C26.5261 16.6928 26.6666 16.3536 26.6666 16C26.6666 15.6464 26.5261 15.3072 26.2761 15.0572C26.026 14.8071 25.6869 14.6667 25.3333 14.6667V17.3333ZM6.66659 8C6.31296 8 5.97382 8.14048 5.72378 8.39052C5.47373 8.64057 5.33325 8.97971 5.33325 9.33333C5.33325 9.68696 5.47373 10.0261 5.72378 10.2761C5.97382 10.5262 6.31296 10.6667 6.66659 10.6667V8ZM25.3333 10.6667C25.6869 10.6667 26.026 10.5262 26.2761 10.2761C26.5261 10.0261 26.6666 9.68696 26.6666 9.33333C26.6666 8.97971 26.5261 8.64057 26.2761 8.39052C26.026 8.14048 25.6869 8 25.3333 8V10.6667ZM6.66659 21.3333C6.31296 21.3333 5.97382 21.4738 5.72378 21.7239C5.47373 21.9739 5.33325 22.313 5.33325 22.6667C5.33325 23.0203 5.47373 23.3594 5.72378 23.6095C5.97382 23.8595 6.31296 24 6.66659 24V21.3333ZM25.3333 24C25.6869 24 26.026 23.8595 26.2761 23.6095C26.5261 23.3594 26.6666 23.0203 26.6666 22.6667C26.6666 22.313 26.5261 21.9739 26.2761 21.7239C26.026 21.4738 25.6869 21.3333 25.3333 21.3333V24ZM6.66659 17.3333H25.3333V14.6667H6.66659V17.3333ZM6.66659 10.6667H25.3333V8H6.66659V10.6667ZM6.66659 24H25.3333V21.3333H6.66659V24Z" fill="#333333"/>
</svg>
