<svg width="53" height="32" viewBox="0 0 53 32" fill="none" xmlns="http://www.w3.org/2000/svg">
<g clip-path="url(#clip0_6691_2419)">
<path d="M49.3365 0H3.59785C2.08975 0 0.867188 1.21672 0.867188 2.71762V29.2824C0.867188 30.7833 2.08975 32 3.59785 32H49.3365C50.8446 32 52.0672 30.7833 52.0672 29.2824V2.71762C52.0672 1.21672 50.8446 0 49.3365 0Z" fill="black"/>
<path d="M15.963 28.6485V26.9602C15.963 26.3127 15.567 25.8908 14.9171 25.8908C14.5758 25.8908 14.2106 26.0036 13.9559 26.3664C13.758 26.0565 13.4781 25.8908 13.0514 25.8908C12.7292 25.8769 12.4215 26.0249 12.2322 26.2848V25.9451H11.6949V28.6464H12.2322V27.1008C12.2322 26.6252 12.5148 26.3976 12.9108 26.3976C13.3067 26.3976 13.5327 26.651 13.5327 27.1008V28.6485H14.0699V27.1008C14.0699 26.6252 14.3526 26.3976 14.7485 26.3976C15.1445 26.3976 15.3704 26.651 15.3704 27.1008V28.6485H15.963ZM24.7844 25.975H23.7945V25.1597H23.2586V25.975H22.6934V26.4506H23.2586V27.7197C23.2586 28.3387 23.4846 28.7049 24.1632 28.7049C24.4202 28.6995 24.6721 28.6319 24.897 28.5078L24.7271 28.0323C24.5745 28.1271 24.3976 28.176 24.2178 28.1729C23.9352 28.1729 23.7938 28.0037 23.7938 27.7224V26.4289H24.7837V25.9784L24.7844 25.975ZM29.817 25.8908C29.5193 25.8842 29.2401 26.0338 29.0818 26.2848V25.9451H28.5445V28.6464H29.0818V27.1293C29.0818 26.6789 29.3077 26.3976 29.6757 26.3976C29.7999 26.4026 29.9231 26.4215 30.043 26.454L30.213 25.9472C30.0833 25.9146 29.9506 25.8957 29.817 25.8908ZM22.2114 26.172C21.9288 25.975 21.5329 25.8908 21.1089 25.8908C20.4303 25.8908 20.0064 26.2006 20.0064 26.7353C20.0064 27.1857 20.3177 27.4385 20.9109 27.5234L21.1936 27.5512C21.5049 27.6076 21.7028 27.7204 21.7028 27.861C21.7028 28.0581 21.4769 28.2007 21.0523 28.2007C20.728 28.2074 20.4105 28.1086 20.1477 27.9195L19.8651 28.3414C20.261 28.6227 20.7416 28.6811 21.0256 28.6811C21.8175 28.6811 22.2415 28.3156 22.2415 27.8087C22.2415 27.3331 21.9001 27.1055 21.3083 27.0206L21.0256 26.9928C20.771 26.9649 20.5478 26.88 20.5478 26.7115C20.5478 26.5145 20.7737 26.3718 21.085 26.3718C21.4264 26.3718 21.7636 26.5124 21.9336 26.5967L22.2114 26.172ZM30.4109 27.2978C30.4109 28.1131 30.9482 28.7049 31.8247 28.7049C32.2207 28.7049 32.5033 28.6206 32.7859 28.3951L32.5033 27.9731C32.3032 28.1344 32.0542 28.2237 31.7968 28.2266C31.3189 28.2266 30.9482 27.861 30.9482 27.3264C30.9482 26.7917 31.3141 26.4289 31.7968 26.4289C32.0542 26.4317 32.3032 26.521 32.5033 26.6823L32.7859 26.2604C32.5033 26.0355 32.2207 25.9506 31.8247 25.9506C30.9762 25.8942 30.4109 26.4852 30.4109 27.3012V27.2978ZM26.6221 25.8908C25.8302 25.8908 25.293 26.4533 25.293 27.2978C25.293 28.1423 25.8582 28.7049 26.6781 28.7049C27.077 28.7133 27.4665 28.5841 27.7806 28.3393L27.498 27.9453C27.2708 28.1205 26.9934 28.219 26.7061 28.2266C26.3388 28.2266 25.9429 28.0017 25.8869 27.5234H27.8946V27.2985C27.8946 26.454 27.3854 25.8914 26.6221 25.8914V25.8908ZM26.5941 26.3976C26.9901 26.3976 27.2727 26.651 27.3007 27.0729H25.8309C25.9156 26.6789 26.1723 26.3976 26.5941 26.3976ZM19.2712 27.2978V25.9472H18.7339V26.2869C18.5359 26.0334 18.2561 25.8928 17.8574 25.8928C17.0942 25.8928 16.5282 26.4839 16.5282 27.2999C16.5282 28.1158 17.0935 28.7069 17.8574 28.7069C18.2533 28.7069 18.5359 28.5663 18.7339 28.3129V28.6526H19.2712V27.2978ZM17.0942 27.2978C17.0942 26.791 17.4055 26.3976 17.9427 26.3976C18.452 26.3976 18.7619 26.7917 18.7619 27.2978C18.7619 27.8325 18.4206 28.198 17.9427 28.198C17.4055 28.2259 17.0942 27.804 17.0942 27.2978ZM37.9892 25.8908C37.6915 25.8842 37.4123 26.0338 37.254 26.2848V25.9451H36.7167V28.6464H37.2533V27.1293C37.2533 26.6789 37.4793 26.3976 37.8472 26.3976C37.9714 26.4026 38.0946 26.4215 38.2145 26.454L38.3845 25.9472C38.2548 25.9146 38.1221 25.8957 37.9885 25.8908H37.9892ZM35.8968 27.2978V25.9472H35.3596V26.2869C35.1616 26.0334 34.8817 25.8928 34.483 25.8928C33.7198 25.8928 33.1539 26.4839 33.1539 27.2999C33.1539 28.1158 33.7191 28.7069 34.483 28.7069C34.879 28.7069 35.1616 28.5663 35.3596 28.3129V28.6526H35.8968V27.2978ZM33.7198 27.2978C33.7198 26.791 34.0311 26.3976 34.5684 26.3976C35.0776 26.3976 35.3876 26.7917 35.3876 27.2978C35.3876 27.8325 35.0462 28.198 34.5684 28.198C34.0311 28.2259 33.7198 27.804 33.7198 27.2978ZM41.3541 27.2978V24.8778H40.8168V26.2848C40.6189 26.0314 40.339 25.8908 39.9403 25.8908C39.1771 25.8908 38.6111 26.4819 38.6111 27.2978C38.6111 28.1138 39.1764 28.7049 39.9403 28.7049C40.3362 28.7049 40.6189 28.5642 40.8168 28.3108V28.6505H41.3541V27.2978ZM39.1771 27.2978C39.1771 26.791 39.4884 26.3976 40.0256 26.3976C40.5349 26.3976 40.8448 26.7917 40.8448 27.2978C40.8448 27.8325 40.5035 28.198 40.0256 28.198C39.4877 28.2266 39.1764 27.8047 39.1764 27.2978H39.1771Z" fill="white"/>
<path d="M21.5895 5.46173H31.4008V21.3884H21.5895V5.46173Z" fill="#FF5F00"/>
<path d="M22.5794 13.425C22.5801 10.321 24.0069 7.38769 26.4529 5.46174C22.2799 2.19642 16.286 2.67106 12.6844 6.55205C9.08274 10.433 9.08274 16.4171 12.6844 20.298C16.286 24.179 22.2799 24.6537 26.4529 21.3884C24.0069 19.4624 22.5801 16.5291 22.5794 13.425Z" fill="#EB001B"/>
<path d="M42.9372 13.4251C42.94 17.3009 40.7183 20.8378 37.2161 22.5329C33.714 24.2281 29.5466 23.7836 26.4849 21.3884C28.9315 19.4629 30.3585 16.5293 30.3585 13.4251C30.3585 10.3209 28.9315 7.38724 26.4849 5.46176C29.5466 3.06656 33.714 2.62208 37.2161 4.31722C40.7183 6.01235 42.94 9.54929 42.9372 13.4251Z" fill="#F79E1B"/>
</g>
<defs>
<clipPath id="clip0_6691_2419">
<rect width="51.2" height="32" fill="white" transform="translate(0.867188)"/>
</clipPath>
</defs>
</svg>
