<svg width="52" height="32" viewBox="0 0 52 32" fill="none" xmlns="http://www.w3.org/2000/svg">
<g clip-path="url(#clip0_6691_2427)">
<path d="M0.666992 2.71795C0.666992 1.21687 1.88995 0 3.39711 0H49.1369C50.6447 0 51.867 1.21658 51.867 2.71795V29.2821C51.867 30.7831 50.644 32 49.1369 32H3.39711C1.88931 32 0.666992 30.7834 0.666992 29.2821L0.666992 2.71795ZM36.4737 9.69427C35.752 9.42482 34.6212 9.13566 33.209 9.13566C29.6097 9.13566 27.0743 10.9396 27.0527 13.5249C27.0324 15.436 28.8627 16.5021 30.2444 17.1383C31.6623 17.7902 32.139 18.206 32.1322 18.7881C32.1232 19.6796 31 20.0869 29.9529 20.0869C28.495 20.0869 27.7204 19.8854 26.5242 19.3888L26.0548 19.1773L25.5435 22.1548C26.3943 22.526 27.9676 22.8477 29.6012 22.8643C33.4302 22.8643 35.9159 21.0811 35.9442 18.3203C35.9579 16.8074 34.9874 15.6559 32.8859 14.7067C31.6126 14.0914 30.8329 13.6809 30.8412 13.0579C30.8412 12.505 31.5012 11.9139 32.9272 11.9139C34.1184 11.8955 34.9812 12.154 35.6535 12.4234L35.9799 12.5769L36.4737 9.69427ZM45.8144 9.3795H42.9997C42.1278 9.3795 41.4753 9.61634 41.0923 10.4824L35.6825 22.6712H39.5075C39.5075 22.6712 40.133 21.0323 40.2745 20.6725C40.6925 20.6725 44.4083 20.6782 44.9395 20.6782C45.0485 21.1438 45.3827 22.6712 45.3827 22.6712H48.7627L45.8144 9.3795ZM41.3227 17.9521C41.624 17.1858 42.774 14.2342 42.774 14.2342C42.7525 14.2696 43.073 13.4642 43.257 12.9648L43.5032 14.1115C43.5032 14.1115 44.2007 17.2863 44.3464 17.952H41.3227V17.9521ZM19.6213 22.667H23.2623L25.5414 9.36679H21.8987L19.6213 22.667ZM12.6197 16.6024L11.3426 10.4911C11.1221 9.64895 10.4826 9.39764 9.69147 9.36829H3.81774L3.77125 9.64501C5.20007 9.98923 6.47774 10.4859 7.59748 11.1038L10.836 22.6555L14.69 22.6511L20.4246 9.37651H16.5661L12.9999 18.4462L12.6199 16.6031C12.6198 16.6029 12.6198 16.6026 12.6197 16.6024Z" fill="#393939"/>
</g>
<defs>
<clipPath id="clip0_6691_2427">
<rect width="51.2" height="32" fill="white" transform="translate(0.666992)"/>
</clipPath>
</defs>
</svg>
