<svg width="21" height="16" viewBox="0 0 21 16" fill="none" xmlns="http://www.w3.org/2000/svg">
<g clip-path="url(#clip0_4632_9271)">
<path d="M3.73862 15.9642V14.9011C3.73862 14.4934 3.49049 14.2277 3.08322 14.2277C2.86931 14.2277 2.64044 14.2987 2.48086 14.5272C2.3568 14.3321 2.1814 14.2277 1.91402 14.2277C1.81461 14.2234 1.71568 14.2438 1.62609 14.2871C1.5365 14.3304 1.45904 14.3953 1.40065 14.4758V14.2619H1.06396V15.9629H1.40065V14.9896C1.40065 14.6902 1.57776 14.5468 1.82589 14.5468C2.07402 14.5468 2.21562 14.7064 2.21562 14.9896V15.9642H2.55231V14.9896C2.55231 14.6902 2.72942 14.5468 2.97755 14.5468C3.22568 14.5468 3.36728 14.7064 3.36728 14.9896V15.9642H3.73862ZM9.26675 14.2808H8.64643V13.7674H8.3106V14.2808H7.95637V14.5802H8.3106V15.3794C8.3106 15.7691 8.4522 15.9997 8.87744 15.9997C9.03854 15.9963 9.1964 15.9537 9.33733 15.8756L9.23081 15.5762C9.13522 15.6359 9.02437 15.6667 8.91166 15.6647C8.73455 15.6647 8.646 15.5582 8.646 15.3811V14.5665H9.26632V14.2829L9.26675 14.2808ZM12.4205 14.2277C12.3288 14.2257 12.2382 14.2475 12.1574 14.2909C12.0767 14.3344 12.0086 14.3981 11.9598 14.4758V14.2619H11.6231V15.9629H11.9598V15.0076C11.9598 14.724 12.1014 14.5468 12.332 14.5468C12.4098 14.55 12.487 14.5619 12.5621 14.5824L12.6687 14.2632C12.5874 14.2427 12.5043 14.2308 12.4205 14.2277ZM7.65434 14.4048C7.47723 14.2808 7.2291 14.2277 6.96343 14.2277C6.53819 14.2277 6.27252 14.4228 6.27252 14.7595C6.27252 15.0431 6.4676 15.2022 6.83937 15.2557L7.01648 15.2733C7.21156 15.3088 7.33562 15.3798 7.33562 15.4683C7.33562 15.5924 7.19402 15.6822 6.92792 15.6822C6.72474 15.6864 6.52574 15.6243 6.36108 15.5051L6.18397 15.7708C6.43209 15.9479 6.73327 15.9847 6.91124 15.9847C7.40749 15.9847 7.67316 15.7545 7.67316 15.4354C7.67316 15.1359 7.45926 14.9926 7.08835 14.9391L6.91124 14.9216C6.75167 14.9041 6.61177 14.8506 6.61177 14.7445C6.61177 14.6204 6.75338 14.5306 6.94846 14.5306C7.16236 14.5306 7.3737 14.6191 7.48022 14.6722L7.65434 14.4048ZM12.7927 15.1137C12.7927 15.6271 13.1294 15.9997 13.6787 15.9997C13.9269 15.9997 14.104 15.9466 14.2811 15.8046L14.104 15.5389C13.9786 15.6405 13.8225 15.6967 13.6612 15.6985C13.3617 15.6985 13.1294 15.4683 13.1294 15.1317C13.1294 14.795 13.3587 14.5665 13.6612 14.5665C13.8225 14.5683 13.9786 14.6245 14.104 14.7261L14.2811 14.4604C14.104 14.3188 13.9269 14.2654 13.6787 14.2654C13.147 14.2298 12.7927 14.602 12.7927 15.1158V15.1137ZM10.4184 14.2277C9.92215 14.2277 9.58546 14.5819 9.58546 15.1137C9.58546 15.6455 9.93969 15.9997 10.4535 15.9997C10.7034 16.005 10.9475 15.9236 11.1444 15.7695L10.9673 15.5214C10.8249 15.6317 10.6511 15.6938 10.471 15.6985C10.2409 15.6985 9.99273 15.5569 9.95765 15.2557H11.2158V15.1141C11.2158 14.5824 10.8967 14.2281 10.4184 14.2281V14.2277ZM10.4009 14.5468C10.649 14.5468 10.8261 14.7064 10.8436 14.9721H9.92257C9.97562 14.724 10.1365 14.5468 10.4009 14.5468ZM5.81177 15.1137V14.2632H5.47509V14.4771C5.35102 14.3175 5.17562 14.229 4.92578 14.229C4.44749 14.229 4.09284 14.6012 4.09284 15.115C4.09284 15.6288 4.44707 16.001 4.92578 16.001C5.17391 16.001 5.35102 15.9124 5.47509 15.7528V15.9667H5.81177V15.1137ZM4.44749 15.1137C4.44749 14.7945 4.64257 14.5468 4.97926 14.5468C5.2984 14.5468 5.49263 14.795 5.49263 15.1137C5.49263 15.4504 5.27872 15.6805 4.97926 15.6805C4.64257 15.6981 4.44749 15.4324 4.44749 15.1137ZM17.5418 14.2277C17.4501 14.2257 17.3595 14.2475 17.2787 14.2909C17.1979 14.3344 17.1298 14.3981 17.0811 14.4758V14.2619H16.7444V15.9629H17.0807V15.0076C17.0807 14.724 17.2223 14.5468 17.4528 14.5468C17.5307 14.55 17.6079 14.5619 17.683 14.5824L17.7895 14.2632C17.7083 14.2427 17.6251 14.2308 17.5414 14.2277H17.5418ZM16.2306 15.1137V14.2632H15.8939V14.4771C15.7698 14.3175 15.5944 14.229 15.3446 14.229C14.8663 14.229 14.5117 14.6012 14.5117 15.115C14.5117 15.6288 14.8659 16.001 15.3446 16.001C15.5927 16.001 15.7698 15.9124 15.8939 15.7528V15.9667H16.2306V15.1137ZM14.8663 15.1137C14.8663 14.7945 15.0614 14.5468 15.3981 14.5468C15.7172 14.5468 15.9115 14.795 15.9115 15.1137C15.9115 15.4504 15.6975 15.6805 15.3981 15.6805C15.0614 15.6981 14.8663 15.4324 14.8663 15.1137ZM19.6505 15.1137V13.5898H19.3138V14.4758C19.1897 14.3163 19.0143 14.2277 18.7645 14.2277C18.2862 14.2277 17.9316 14.5999 17.9316 15.1137C17.9316 15.6275 18.2858 15.9997 18.7645 15.9997C19.0126 15.9997 19.1897 15.9111 19.3138 15.7516V15.9655H19.6505V15.1137ZM18.2862 15.1137C18.2862 14.7945 18.4813 14.5468 18.818 14.5468C19.1371 14.5468 19.3313 14.795 19.3313 15.1137C19.3313 15.4504 19.1174 15.6805 18.818 15.6805C18.4809 15.6985 18.2858 15.4328 18.2858 15.1137H18.2862Z" fill="white"/>
<path d="M7.26465 1.36426H13.4131V11.3929H7.26465V1.36426Z" fill="#F0F0F0"/>
<path d="M7.88492 6.37861C7.88513 5.41385 8.1036 4.46163 8.52396 3.59327C8.94433 2.7249 9.5557 1.96289 10.3123 1.36428C9.37137 0.62448 8.24126 0.164353 7.05117 0.0364984C5.86108 -0.0913566 4.65903 0.11822 3.58243 0.641271C2.50582 1.16432 1.59811 1.97974 0.963049 2.99431C0.327989 4.00889 -0.00878906 5.18167 -0.00878906 6.37861C-0.00878906 7.57555 0.327989 8.74834 0.963049 9.76291C1.59811 10.7775 2.50582 11.5929 3.58243 12.116C4.65903 12.639 5.86108 12.8486 7.05117 12.7207C8.24126 12.5929 9.37137 12.1327 10.3123 11.3929C9.5557 10.7943 8.94433 10.0323 8.52396 9.16396C8.1036 8.29559 7.88513 7.34338 7.88492 6.37861Z" fill="white"/>
<path d="M20.6427 6.37852C20.6435 7.57459 20.3078 8.74675 19.6737 9.76095C19.0397 10.7752 18.1331 11.5904 17.0575 12.1135C15.9819 12.6367 14.7807 12.8465 13.5915 12.7191C12.4022 12.5916 11.2728 12.132 10.3325 11.3929C11.0893 10.7944 11.7008 10.0324 12.1212 9.16402C12.5416 8.29562 12.76 7.34333 12.76 6.37852C12.76 5.41372 12.5416 4.46142 12.1212 3.59302C11.7008 2.72462 11.0893 1.96264 10.3325 1.36419C11.2728 0.62503 12.4022 0.165442 13.5915 0.0379922C14.7807 -0.0894576 15.9819 0.120376 17.0575 0.643495C18.1331 1.16661 19.0397 1.98189 19.6737 2.99609C20.3078 4.01029 20.6435 5.18246 20.6427 6.37852Z" fill="white"/>
</g>
<defs>
<clipPath id="clip0_4632_9271">
<rect width="20.6421" height="16" fill="white"/>
</clipPath>
</defs>
</svg>
