<svg width="38" height="38" viewBox="0 0 38 38" fill="none" xmlns="http://www.w3.org/2000/svg">
<rect width="38" height="38" rx="19" fill="#3B5998"/>
<path d="M16.0809 11.9625C16.0809 12.5103 16.1007 15.1908 16.1007 15.1908H13.75V18.625L16.0809 18.6187L16.1007 29.5H20.8022V18.625L23.8133 18.6187C23.8133 18.6187 24.0407 17.1106 24.1814 15.1908C23.7774 15.1908 20.8022 15.1908 20.8022 15.1908C20.8022 15.1908 20.7258 12.8127 20.7258 12.4395C20.7258 12.0654 21.2302 11.562 21.7289 11.562H24.25C24.25 11.0635 24.25 9.3409 24.25 7.75C22.9513 7.75 21.4739 7.75 20.8223 7.75C15.9665 7.75 16.0809 11.4151 16.0809 11.9625Z" fill="white"/>
</svg>
