<svg width="40" height="40" viewBox="0 0 40 40" fill="none" xmlns="http://www.w3.org/2000/svg">
<path d="M20 39C30.4934 39 39 30.4934 39 20C39 9.50659 30.4934 1 20 1C9.50659 1 1 9.50659 1 20C1 30.4934 9.50659 39 20 39Z" fill="#0088CC"/>
<path d="M16.3327 29.1663C15.6847 29.1663 15.7948 28.9217 15.5714 28.3048L13.666 22.034L28.3327 13.333" fill="#C8DAEA"/>
<path d="M16.334 29.1662C16.834 29.1662 17.0549 28.9376 17.334 28.6662L20.0007 26.0732L16.6743 24.0674" fill="#A9C9DD"/>
<path d="M16.6735 24.0686L24.7335 30.0234C25.6533 30.5309 26.3171 30.2681 26.5462 29.1695L29.827 13.709C30.1629 12.3623 29.3137 11.7515 28.4338 12.1509L9.16879 19.5794C7.85378 20.1069 7.86144 20.8405 8.92909 21.1674L13.8729 22.7105L25.3184 15.4897C25.8587 15.162 26.3546 15.3382 25.9476 15.6994" fill="url(#paint0_linear_426_2914)"/>
<defs>
<linearGradient id="paint0_linear_426_2914" x1="22.501" y1="20" x2="25.6308" y2="27.1222" gradientUnits="userSpaceOnUse">
<stop stop-color="#EFF7FC"/>
<stop offset="1" stop-color="white"/>
</linearGradient>
</defs>
</svg>
