<svg width="38" height="38" viewBox="0 0 38 38" fill="none" xmlns="http://www.w3.org/2000/svg">
<path d="M19 38C29.4934 38 38 29.4934 38 19C38 8.50659 29.4934 0 19 0C8.50659 0 0 8.50659 0 19C0 29.4934 8.50659 38 19 38Z" fill="#7360F2"/>
<path d="M21.7076 18.0376C21.3849 16.8933 20.4846 15.9911 19.3414 15.6659M24.2694 18.1717C23.5875 15.7537 21.6851 13.8473 19.2694 13.16M27.1726 18.4417C26.0581 14.4894 22.9485 11.3735 19 10.25" stroke="white" stroke-linecap="round" stroke-linejoin="round"/>
<path fill-rule="evenodd" clip-rule="evenodd" d="M15.2192 17.3187C15.6919 16.9078 15.7377 16.1988 15.329 15.7286L12.6192 12.6113L10.9179 14.0902C9.98022 14.9053 10.0481 16.0419 10.5123 17.3187C10.5123 17.3187 11.9212 19.8534 14.1754 22.1497C16.4296 24.4459 20.6343 26.6233 20.6343 26.6233C21.6779 27.301 23.0749 27.0018 23.7515 25.9598L24.9793 24.0693L21.5152 21.8197C20.9927 21.4804 20.297 21.6244 19.9558 22.1497L19.5565 22.7646C17.8729 22.2032 15.6758 21.6511 14.5274 17.9201L15.2192 17.3187Z" fill="white"/>
</svg>
