<svg width="40" height="40" viewBox="0 0 40 40" fill="none" xmlns="http://www.w3.org/2000/svg">
<path d="M20 39C30.4934 39 39 30.4934 39 20C39 9.50659 30.4934 1 20 1C9.50659 1 1 9.50659 1 20C1 30.4934 9.50659 39 20 39Z" fill="#C4302B"/>
<path fill-rule="evenodd" clip-rule="evenodd" d="M26.0661 26.25H14.5589C13.0827 26.25 11.875 25.0161 11.875 23.5081V17.1169C11.875 15.6089 13.0827 14.375 14.5589 14.375H26.0661C27.5423 14.375 28.75 15.6089 28.75 17.1169V23.5081C28.75 25.0161 27.5423 26.25 26.0661 26.25ZM18.7801 18.016V23.0875L23.3749 20.4691L18.7801 18.016Z" fill="white"/>
</svg>
