<svg width="24" height="24" viewBox="0 0 24 24" fill="none" xmlns="http://www.w3.org/2000/svg">
<path d="M3.0748 9.04325L4.80881 19.8897C4.85834 20.2002 5.01202 20.4822 5.24248 20.6856C5.47294 20.889 5.76521 21.0006 6.06723 21.0004H17.9324C18.2342 21.0002 18.5261 20.8886 18.7563 20.6852C18.9865 20.4818 19.14 20.1999 19.1895 19.8897L20.9248 9.04325M3.0748 9.04325H6.89981M3.0748 9.04325H1.7998M20.9248 9.04325H17.0998M20.9248 9.04325H22.1998M6.89981 9.04325L8.17481 2.40039M6.89981 9.04325H17.0998M17.0998 9.04325L15.8248 2.40039M8.17481 14.3575V15.6861M15.8248 14.3575V15.6861M11.9998 14.3575V15.6861" stroke="white" stroke-width="1.5" stroke-linecap="round" stroke-linejoin="round"/>
</svg>
