<svg width="16" height="16" viewBox="0 0 16 16" fill="none" xmlns="http://www.w3.org/2000/svg">
<path d="M2 8L3.33333 6.66667M3.33333 6.66667L8 2L12.6667 6.66667M3.33333 6.66667V13.3333C3.33333 13.7015 3.63181 14 4 14H6M12.6667 6.66667L14 8M12.6667 6.66667V13.3333C12.6667 13.7015 12.3682 14 12 14H10M6 14C6.36819 14 6.66667 13.7015 6.66667 13.3333V10.6667C6.66667 10.2985 6.96513 10 7.33333 10H8.66667C9.03487 10 9.33333 10.2985 9.33333 10.6667V13.3333C9.33333 13.7015 9.6318 14 10 14M6 14H10" stroke="#333333" stroke-width="0.862667" stroke-linecap="round" stroke-linejoin="round"/>
</svg>
