<svg width="65" height="16" viewBox="0 0 65 16" fill="none" xmlns="http://www.w3.org/2000/svg">
<path d="M64.497 0.933548C64.2719 0.629229 64.0453 0.40294 62.9107 0.324909C62.6096 0.324909 61.7016 0.25 60.1154 0.25C55.9588 0.25 53.0859 1.54063 51.6502 4.04853C52.0289 1.54063 49.6122 0.25 44.3195 0.25C38.1219 0.25 34.192 2.7579 32.6057 7.84862C32.0004 9.74789 32.0004 11.2679 32.4536 12.4836H30.9419C29.8088 12.5601 28.2971 12.6366 27.3146 12.6366C25.0485 12.6366 23.6113 12.2558 23.082 11.4973C22.6288 10.8107 22.6288 9.52004 23.2341 7.62077C24.2166 4.50423 26.5587 3.13713 30.3381 3.13713C32.3031 3.13713 34.192 3.36498 34.192 3.36498C34.4186 3.36498 34.5707 3.06066 34.5707 2.83437L34.4931 2.60496L34.3441 1.54063C34.2665 0.857078 33.7388 0.477849 32.8324 0.324909C32.0004 0.25 31.3206 0.25 30.4142 0.25H30.3366C25.4257 0.25 21.949 1.91986 20.06 5.11287C20.7399 1.84495 18.4722 0.25 13.2571 0.25C10.3097 0.25 8.19414 0.324909 6.98505 0.477849C6.00256 0.629229 5.39724 1.00846 5.17063 1.69357L4.71741 3.06066C4.64136 3.28851 4.79347 3.44145 5.09613 3.44145C5.32274 3.44145 6.22917 3.28851 7.74093 3.2136C9.7804 3.06066 11.2177 2.98419 12.2001 2.98419C15.0715 2.98419 16.3567 3.74421 15.9035 5.18934C15.8259 5.4921 15.6008 5.71995 15.2221 5.79798C12.5013 6.25211 10.3097 6.55643 8.72341 6.78428C4.18814 7.39292 1.54335 8.76002 0.863522 11.0416C-0.118965 14.1566 2.29922 15.6767 8.11809 15.6767C10.9895 15.6767 13.4837 15.5253 15.4487 15.146C16.5818 14.9166 17.1871 14.6888 17.4137 13.9288L18.4722 10.433C18.3962 13.9288 20.7383 15.6767 25.7283 15.6767C27.8439 15.6767 29.8849 15.6002 30.8658 15.4488C31.8499 15.2974 32.3776 15.0696 32.6042 14.3096L32.8339 13.2421C33.8909 14.9135 36.233 15.75 39.7874 15.75C43.5652 15.75 45.7568 15.672 46.3621 15.4457C46.8898 15.2943 47.1925 14.99 47.3446 14.6092C47.3446 14.5343 47.3446 14.4578 47.4191 14.3813L47.8739 12.9378C47.9484 12.7099 47.7963 12.5585 47.4951 12.5585L45.077 12.7099C43.4892 12.7864 42.2056 12.8613 41.2976 12.8613C39.5592 12.8613 38.4262 12.7099 37.7463 12.4821C36.7639 12.1013 36.3106 11.4177 36.3851 10.2785L44.0184 9.29063C47.4191 8.83493 49.7612 7.77059 50.8958 6.09917L48.2495 14.99C48.1734 15.1414 48.2495 15.2943 48.3255 15.3692C48.4016 15.4472 48.5521 15.5222 48.8532 15.5222H52.0289C52.5566 15.5222 52.7847 15.2178 52.8592 14.99L55.6562 5.18622C56.0333 3.89559 57.1679 3.28695 59.2834 3.28695C61.1739 3.28695 62.5336 3.28695 63.44 3.36342H63.5176C63.6682 3.36342 63.9693 3.28695 64.1959 2.90772L64.6506 1.53907C64.6506 1.31122 64.6506 1.08337 64.4985 0.930427L64.497 0.933548ZM13.5613 12.6366C12.5789 12.788 11.1432 12.8644 9.32874 12.8644C6.08017 12.8644 4.71897 12.1809 5.09768 10.8887C5.39879 9.97574 6.23072 9.36866 7.59037 9.21728L14.9225 8.22941L13.5613 12.6366ZM47.3446 4.73364C47.0419 5.72151 45.6062 6.40349 43.0359 6.78428L36.9144 7.62077L37.0665 7.09016C37.5942 5.41719 38.2756 4.35285 39.182 3.74577C40.0885 3.13713 41.6002 2.83281 43.7173 2.83281C46.5127 2.91084 47.7218 3.51792 47.3446 4.73364Z" fill="#6D6D6D"/>
</svg>
