<svg width="25" height="28" viewBox="0 0 25 28" fill="none" xmlns="http://www.w3.org/2000/svg">
<g clip-path="url(#clip0_2586_8341)">
<path d="M20.3696 14.7477C20.3571 12.4611 21.3914 10.7352 23.4848 9.46417C22.3135 7.78816 20.544 6.86604 18.2076 6.68536C15.9957 6.5109 13.5783 7.97508 12.6935 7.97508C11.759 7.97508 9.61567 6.74766 7.93342 6.74766C4.45679 6.80374 0.762085 9.52025 0.762085 15.0467C0.762085 16.6791 1.06115 18.3655 1.65928 20.1059C2.45679 22.3925 5.33529 28 8.33841 27.9065C9.9085 27.8692 11.0175 26.7913 13.0612 26.7913C15.0425 26.7913 16.0705 27.9065 17.8213 27.9065C20.8493 27.8629 23.4537 22.7664 24.2138 20.4735C20.1515 18.5607 20.3696 14.866 20.3696 14.7477ZM16.8431 4.51713C18.544 2.49844 18.3883 0.660436 18.3384 0C16.8369 0.0872274 15.0985 1.02181 14.1079 2.17445C13.0175 3.4081 12.3758 4.93458 12.5129 6.65421C14.139 6.77882 15.6219 5.94392 16.8431 4.51713Z" fill="#6D6D6D"/>
</g>
<defs>
<clipPath id="clip0_2586_8341">
<rect width="24.976" height="28" fill="white"/>
</clipPath>
</defs>
</svg>
