<svg width="28" height="29" viewBox="0 0 28 29" fill="none" xmlns="http://www.w3.org/2000/svg">
<path d="M14.0001 28.4163C13.861 28.4163 13.7224 28.4138 13.584 28.4098L16.4452 20.5466H20.3827C21.0738 20.5466 21.8325 20.0153 22.0689 19.3662L25.1728 10.84C25.6807 9.44412 24.8812 8.30208 23.3958 8.30208H17.9332L13.35 20.8966H13.3483L10.7499 28.0362C4.58538 26.5707 0.00012207 21.0292 0.00012207 14.4163C0.00012207 7.99408 4.32457 2.58237 10.2203 0.933093L7.53925 8.30208L3.08142 20.5466L6.04845 20.5468L9.83882 10.1421H12.0688L8.2784 20.5468L11.2443 20.5474L14.7766 10.84C15.2848 9.44412 14.4851 8.30208 13.0011 8.30208H10.5071L13.3708 0.430973C13.5795 0.421704 13.7891 0.41626 14 0.41626C21.732 0.41626 28 6.68424 28 14.4163C28 22.1482 21.7321 28.4163 14.0001 28.4163ZM22.4709 10.1346H20.2416L17.1197 18.7004H19.349L22.4709 10.1346Z" fill="#6D6D6D"/>
</svg>
