<svg width="37" height="38" viewBox="0 0 37 38" fill="none" xmlns="http://www.w3.org/2000/svg">
<path d="M11.5381 31.8412V35.3167C11.5381 36.3053 11.0469 36.8272 10.1565 36.8272C9.26002 36.8272 8.76879 36.2868 8.76879 35.2737V31.8474H7.54072V35.3167C7.54072 37.0237 8.48634 38 10.1442 38C11.8144 38 12.7723 37.0053 12.7723 35.2614V31.8351L11.5381 31.8412ZM16.0635 31.8412L13.3925 37.9079H14.6512L15.167 36.7351L15.2039 36.6491H17.9793L18.5258 37.914H19.8153L17.1688 31.8842L17.1442 31.8474L16.0635 31.8412ZM23.3828 31.8412L22.0074 36.0167L20.6688 31.8474H19.3548L21.467 37.914H22.4863L23.8679 33.9289L25.2495 37.914H26.2749L28.3811 31.8474H27.1039L25.7591 36.0167L24.3837 31.8412H23.3828ZM35.4302 31.8412V37.9017H36.646V31.8412H35.4302ZM0.589844 31.8412V37.9079H1.81791V35.4456H4.59949V37.9079H5.8337V31.8412H4.59949V34.2912H1.81791V31.8412H0.589844ZM29.3758 31.8474V37.9079H33.9565V36.8026H30.5916V35.2982H32.8328V34.193H30.5916V32.9526H33.846V31.8474H29.3758ZM16.5855 33.3763L17.4635 35.4088H17.4574L17.5188 35.55H15.6583L15.7197 35.4088L16.5855 33.3763Z" fill="#6D6D6D"/>
<path d="M15.9223 0.83252C15.431 0.875502 14.117 1.17638 14.117 1.17638C11.1451 1.94392 10.4389 4.64568 10.4389 4.64568C10.2916 5.10006 10.2302 5.56673 10.2056 6.0027V6.59831C10.2425 7.51936 10.4512 8.20708 10.4512 8.20708C11.446 12.6159 16.3275 19.8553 17.3775 21.372C17.4512 21.4457 17.5126 21.4211 17.5126 21.4211C17.6232 21.3904 17.617 21.2799 17.617 21.2799C19.2381 5.11848 15.9223 0.83252 15.9223 0.83252ZM21.2644 0.83252C21.2644 0.83252 17.9363 5.11849 19.5512 21.2922C19.5635 21.3966 19.6372 21.415 19.6372 21.415C19.7477 21.458 19.803 21.3536 19.803 21.3536C20.8775 19.7939 25.7346 12.5974 26.7232 8.20708C26.7232 8.20708 27.2574 6.08252 26.7416 4.64568C26.7416 4.64568 26.0047 1.90708 23.0267 1.18252C23.0328 1.18252 22.1793 0.961467 21.2644 0.83252ZM5.9135 5.68954C5.9135 5.68954 3.07666 8.37901 2.94157 11.2281V11.658C2.94157 11.6887 2.94771 11.7255 2.94771 11.7562C3.07052 14.0527 4.8021 15.4159 4.8021 15.4159C7.58368 18.136 14.3319 21.5623 15.8977 22.3422C15.9223 22.3483 16.0021 22.379 16.0512 22.3176C16.0512 22.3176 16.0758 22.2992 16.0881 22.2623V22.1887C16.0881 22.1825 16.0819 22.1825 16.0819 22.1764C11.7898 12.8001 5.9135 5.6834 5.9135 5.68954ZM31.267 5.68954C31.267 5.68954 25.4091 12.7816 21.117 22.1457C21.117 22.1457 21.0679 22.2562 21.1477 22.3237C21.1477 22.3237 21.1723 22.3422 21.203 22.3483H21.2644C21.2767 22.3422 21.2889 22.3422 21.2951 22.336C22.9039 21.5378 29.603 18.1299 32.3784 15.4281C32.3784 15.4281 34.1346 14.0159 34.2267 11.7501C34.4354 8.60006 31.267 5.6834 31.267 5.68954ZM36.5416 14.9983C36.5416 14.9983 26.9933 20.1255 22.0565 23.4536C22.0565 23.4536 21.9644 23.515 22.0012 23.6194C22.0012 23.6194 22.0503 23.7053 22.1179 23.7053C23.8863 23.7115 30.5793 23.7176 30.7451 23.6869C30.7451 23.6869 31.6109 23.6501 32.6793 23.2387C32.6793 23.2387 35.0617 22.4834 36.296 19.7816C36.296 19.7816 36.8609 18.6518 36.867 17.0615V16.9939C36.8609 16.386 36.7749 15.7045 36.5416 14.9983ZM0.638942 15.0229C-0.232988 17.7123 0.93982 19.8799 0.93982 19.886C2.16175 22.4588 4.4828 23.2448 4.4828 23.2448C5.55736 23.6869 6.63192 23.7176 6.63192 23.7176C6.79771 23.7483 13.3126 23.7237 15.0565 23.7115C15.1302 23.7115 15.1732 23.6378 15.1732 23.6378C15.1793 23.6316 15.1854 23.6194 15.1854 23.6132V23.5457C15.1732 23.5027 15.1302 23.4659 15.1302 23.4659C10.1995 20.1378 0.638942 15.0229 0.638942 15.0229ZM14.86 24.5343L3.62315 24.9273C4.83894 27.1009 6.89596 28.7895 9.0328 28.2676C10.5065 27.8992 13.8468 25.5659 14.9521 24.7799L14.946 24.7737C15.0319 24.6939 15.0012 24.6325 15.0012 24.6325C14.9767 24.5404 14.86 24.5404 14.86 24.5343ZM22.3021 24.5404C22.3021 24.5466 22.2039 24.5588 22.1732 24.6325C22.1732 24.6325 22.1486 24.7308 22.2161 24.786C23.2907 25.5597 26.5512 27.8378 28.1232 28.2799C28.1232 28.2799 28.3626 28.3597 28.7617 28.3781H29.0012C30.0512 28.3413 31.8872 27.8009 33.5512 24.9395L22.3021 24.5404Z" fill="#6D6D6D"/>
</svg>
