<svg width="37" height="29" viewBox="0 0 37 29" fill="none" xmlns="http://www.w3.org/2000/svg">
<path fill-rule="evenodd" clip-rule="evenodd" d="M2.23246 15.549C2.4079 15.6691 2.6022 15.7621 2.80819 15.8247C3.21583 15.9469 3.65322 15.9468 4.06082 15.8245C4.26794 15.7622 4.46341 15.6692 4.63999 15.549C4.81803 15.4273 4.97454 15.2795 5.10366 15.1111C5.35649 14.7794 5.49231 14.3802 5.49166 13.9707C5.49166 13.7696 5.4597 13.5675 5.39456 13.3731C5.26155 12.9751 4.99729 12.6283 4.6408 12.3839C4.46444 12.2633 4.26901 12.17 4.06183 12.1077C3.65356 11.9848 3.21529 11.9848 2.80698 12.1075C2.38932 12.2345 2.0258 12.4858 1.77021 12.8241C1.64354 12.9918 1.54563 13.1774 1.48011 13.3741C1.41538 13.5685 1.38342 13.7702 1.38342 13.9707C1.38342 14.1712 1.41518 14.3708 1.47991 14.5635C1.613 14.9601 1.87682 15.3056 2.23246 15.549ZM6.68359 4.41626H0.183594L3.44037 11.4223L6.68359 4.41626Z" fill="#6D6D6D"/>
<path fill-rule="evenodd" clip-rule="evenodd" d="M8.74617 21.3632C8.74596 21.5539 8.70832 21.7428 8.6354 21.9191C8.48745 22.2747 8.20439 22.5573 7.8482 22.705C7.67161 22.7777 7.48246 22.8152 7.29142 22.8154H6.99654C6.80625 22.8154 6.61577 22.7776 6.43976 22.705C6.08351 22.5573 5.80043 22.2747 5.65256 21.9191C5.57968 21.7428 5.54211 21.5539 5.54198 21.3632L5.53947 18.0693L2.18359 18.0647V20.5515C2.18359 21.0572 2.28472 21.5632 2.47809 22.0304C2.67287 22.4992 2.95805 22.9253 3.3174 23.2843C3.67698 23.643 4.10366 23.9276 4.57318 24.1221C5.04297 24.3158 5.54625 24.4158 6.05456 24.4163H8.12938C8.63598 24.4163 9.14257 24.3153 9.61076 24.1221C10.0803 23.9277 10.507 23.643 10.8665 23.2843C11.2259 22.9253 11.5111 22.4993 11.7058 22.0304C11.8999 21.5614 11.9999 21.0589 12.0003 20.5515V4.43977L8.74463 4.44439L8.74617 21.3632ZM33.5493 18.0693L33.5466 20.9938C33.5466 21.1838 33.5085 21.3742 33.4362 21.5497C33.3629 21.7258 33.2557 21.8859 33.1206 22.0208C32.9856 22.1557 32.8253 22.2627 32.6488 22.3356C32.4722 22.4084 32.2831 22.446 32.092 22.4462H31.7973C31.6063 22.446 31.4171 22.4084 31.2405 22.3356C31.064 22.2627 30.9037 22.1557 30.7687 22.0208C30.6342 21.8865 30.5259 21.7252 30.4531 21.5497C30.3804 21.3742 30.3424 21.184 30.3424 20.9938L30.3439 4.44439L27.0884 4.43977L27.0896 24.0016H36.6809L36.6836 18.0647L33.5493 18.0693ZM24.3754 15.1386C24.2146 14.7586 23.9809 14.4137 23.6875 14.1232C23.4135 13.8519 23.0845 13.6422 22.7226 13.5082C23.0237 13.3639 23.3001 13.1732 23.5416 12.9429C23.7877 12.7096 24.0048 12.4331 24.1511 12.1214C24.298 11.8069 24.3741 11.4641 24.3742 11.1172L24.3761 7.55679C24.3761 7.14525 24.2939 6.73351 24.1368 6.35376C23.9797 5.974 23.7468 5.62642 23.4558 5.33607C23.1651 5.04571 22.8172 4.81297 22.437 4.65575C22.0568 4.49853 21.6448 4.41626 21.2323 4.41626H14.758V24.0026H21.4788C22.1006 24.0025 22.7084 23.8185 23.2253 23.4736C23.7423 23.1287 24.1453 22.6386 24.3833 22.0651C24.5409 21.6836 24.6222 21.275 24.6226 20.8623C24.6226 19.3612 24.6187 17.8602 24.6226 16.3593C24.6226 15.94 24.5385 15.525 24.3754 15.1386ZM17.917 6.10367L19.6209 6.09789C19.812 6.09774 20.0012 6.13524 20.1777 6.20825C20.3542 6.28125 20.5145 6.38831 20.6495 6.52331C20.7844 6.65779 20.8923 6.81886 20.9651 6.99439C21.0378 7.16991 21.0751 7.36008 21.0758 7.55024L21.0849 11.4771C21.085 11.7157 21.0142 11.9489 20.8814 12.1473C20.7486 12.3457 20.5598 12.5003 20.339 12.5915C20.1923 12.6516 20.0354 12.6828 19.8768 12.6834L17.917 12.6909V6.10367ZM21.1162 21.4649C21.0555 21.6113 20.9665 21.7442 20.8543 21.8562C20.7421 21.9682 20.6089 22.057 20.4623 22.1175C20.3157 22.1778 20.1587 22.209 20.0001 22.2094L17.9172 22.2169V14.4507L19.7442 14.445C19.9353 14.4447 20.1245 14.4822 20.3011 14.5552C20.4776 14.6282 20.6379 14.7353 20.7728 14.8704C20.9074 15.0047 21.0156 15.1659 21.0884 15.3415C21.1611 15.517 21.1988 15.7072 21.1992 15.8973L21.2082 21.0035C21.208 21.1618 21.1768 21.3186 21.1162 21.4649Z" fill="#6D6D6D"/>
</svg>
