<svg width="87" height="19" viewBox="0 0 87 19" fill="none" xmlns="http://www.w3.org/2000/svg">
<path d="M36.4639 4.27718C34.893 4.27718 33.1064 5.00708 32.0148 6.46847L32.0155 6.46565L32.0148 6.46635L32.0155 4.50656H28.2687V18.1837H32.0148V10.4013C32.0148 9.00066 33.0981 7.51161 35.1042 7.51161C36.6544 7.51161 38.2587 8.59263 38.2587 10.4013V18.1837H42.0055V9.70537C42.0055 6.55955 39.7602 4.27718 36.4639 4.27718ZM68.6351 4.50727L65.2479 13.8237L61.8607 4.50727H57.5806L63.1947 18.18H67.3004L72.9144 4.50727H68.6351ZM17.0831 8.62752C17.7211 7.76865 18.7375 7.26443 19.965 7.26443C21.3152 7.26443 22.3395 8.03732 22.869 9.17824L16.3231 11.9005C16.1444 10.5034 16.501 9.4108 17.0831 8.62752ZM24.2813 13.9787C22.7044 15.1485 21.8034 15.4276 20.3654 15.4276C19.0713 15.4276 18.058 15.0249 17.3438 14.3186L26.9225 10.3354C26.7134 8.85108 26.1513 7.525 25.2866 6.51674C24.028 5.05165 22.1651 4.27647 19.897 4.27647C15.7772 4.27647 12.6707 7.32293 12.6707 11.3468C12.6707 15.475 15.7846 18.4163 20.31 18.4163C22.8455 18.4163 25.4379 17.2117 26.6506 15.8044L24.2813 13.9787ZM12.3136 14.7352H3.79795V0.41626H0V18.1837H12.3136V14.7352ZM79.6423 7.49487C77.5499 7.49487 76.0304 9.08434 76.0304 11.3454C76.0304 13.5043 77.6399 15.1959 79.6925 15.1959C81.7856 15.1959 83.3042 13.5628 83.3042 11.3454C83.3042 9.18653 81.6955 7.49487 79.6423 7.49487ZM79.6423 18.4143C75.5446 18.4143 72.3339 15.3543 72.3339 11.3454C72.3339 7.38142 75.5668 4.27647 79.6925 4.27647C83.7901 4.27647 87 7.33631 87 11.3454C87 15.3085 83.7678 18.4141 79.6423 18.4141M50.7953 7.49487C48.7029 7.49487 47.1844 9.08434 47.1844 11.3454C47.1844 13.5043 48.7931 15.1959 50.8463 15.1959C52.9387 15.1959 54.4573 13.5628 54.4573 11.3454C54.4573 9.18653 52.8485 7.49487 50.7953 7.49487ZM50.7953 18.4143C46.6977 18.4143 43.4879 15.3543 43.4879 11.3454C43.4879 7.38142 46.7199 4.27647 50.8463 4.27647C54.9432 4.27647 58.1538 7.33631 58.1538 11.3454C58.1538 15.3085 54.9211 18.4141 50.7953 18.4141" fill="#6D6D6D"/>
</svg>
