<svg width="56" height="56" viewBox="0 0 56 56" fill="none" xmlns="http://www.w3.org/2000/svg">
<path fill-rule="evenodd" clip-rule="evenodd" d="M24.1366 33.6057V27.4472C24.1366 27.3769 24.2068 27.3067 24.277 27.3067H26.6657C26.7359 27.3067 26.806 27.3769 26.806 27.4472V33.6057C26.806 33.7007 26.7207 33.76 26.623 33.76H24.3196C24.2219 33.76 24.1366 33.7007 24.1366 33.6057ZM29.1287 14.75H29.181C29.3021 14.7514 29.4067 14.7638 29.5443 14.7638C29.6145 14.7638 29.686 14.7624 29.7562 14.7638C29.8374 14.7651 29.8621 14.7789 29.9516 14.7789C30.0204 14.7789 30.0947 14.7762 30.1635 14.7775C30.2364 14.7803 30.2598 14.7927 30.3451 14.7927C30.4868 14.7927 30.6093 14.7982 30.7524 14.8065L31.1308 14.8354C31.3138 14.8368 31.6977 14.8739 31.8876 14.8932C32.8288 14.9924 33.7892 15.1149 34.6878 15.3807C34.8006 15.4138 34.901 15.4386 35.0139 15.4757C35.3193 15.5749 35.6234 15.6768 35.9179 15.7939C36.116 15.8724 36.2963 15.9688 36.4917 16.0486C36.6761 16.1244 36.8481 16.2373 37.0228 16.3337C37.2045 16.4329 37.3627 16.5403 37.5319 16.6532L38.2337 17.1875C38.4236 17.3363 38.9052 17.799 39.0621 18.0028L39.2492 18.2231C39.6221 18.6941 39.9468 19.1789 40.2206 19.7256C40.5082 20.2999 40.727 20.8962 40.9073 21.5131C41.188 22.4743 41.287 23.3144 41.4109 24.2991L41.5554 26.8261C41.554 27.023 41.5361 27.2502 41.5567 27.443C41.5856 27.6992 41.5774 29.3118 41.5554 29.5831C41.5389 29.7856 41.5554 30.01 41.5554 30.2152C41.5554 30.302 41.5402 30.324 41.5402 30.4108L41.5265 31.0305C41.5265 31.1172 41.5113 31.1393 41.5113 31.226C41.5113 31.4904 41.4728 32.0895 41.4398 32.4049L41.3132 33.53C41.1949 34.3604 41.0311 35.1454 40.7807 35.9345C40.5014 36.8131 40.0817 37.6986 39.5285 38.4353C39.4955 38.4808 39.4749 38.5125 39.4405 38.5579C39.2327 38.832 39.007 39.0991 38.7635 39.3429C38.5531 39.555 38.3322 39.7563 38.1016 39.9461L37.8732 40.1251C37.6723 40.2752 37.4645 40.4253 37.2471 40.5534L36.8536 40.7778C36.8013 40.8054 36.7738 40.8247 36.7174 40.8536C36.0528 41.1827 35.7872 41.2764 35.0758 41.5174C34.868 41.5876 34.6506 41.6399 34.4263 41.6964C32.3376 42.2197 29.7851 42.25 27.3372 42.25C25.1232 42.25 22.9629 42.1329 21.1947 41.6909C20.5081 41.5187 19.5353 41.2048 18.8927 40.8316C18.85 40.8068 18.8087 40.7916 18.762 40.7654C18.1483 40.4225 17.9501 40.2559 17.4534 39.8676C17.4245 39.8455 17.4259 39.8483 17.3997 39.8235L17.1741 39.6266C16.9415 39.4035 16.6553 39.128 16.4613 38.8774L16.0925 38.4037C15.7224 37.912 15.4389 37.3543 15.1885 36.7924L15.066 36.4936C15.0275 36.3862 14.9931 36.3022 14.9573 36.1947C14.9243 36.0942 14.8789 35.9868 14.85 35.8808C14.8197 35.7692 14.7812 35.6618 14.7523 35.5571C14.6904 35.3354 14.6367 35.122 14.5831 34.8961C14.4744 34.432 14.3973 33.9652 14.3271 33.4653C14.2845 33.1637 14.1744 32.2396 14.173 31.9463C14.1716 31.6364 14.1262 31.2632 14.1166 30.9479C14.1152 30.879 14.118 30.806 14.118 30.7358C14.118 30.649 14.1028 30.627 14.1028 30.5402L14.0891 29.0915C14.0891 28.9524 14.0753 28.8491 14.0753 28.6976C14.0753 28.1344 14.0918 27.5987 14.0891 27.0244C14.0891 26.9349 14.1028 26.9101 14.1042 26.8288C14.107 26.5548 14.1235 25.6528 14.1565 25.4187C14.1826 25.23 14.1758 24.8678 14.2102 24.6296C14.2294 24.5015 14.2336 24.3693 14.2459 24.2426C14.3491 23.1767 14.5349 22.0943 14.8679 21.0972C15.0729 20.4816 15.3178 19.9074 15.6316 19.3441L15.9508 18.8332C16.12 18.5798 16.3044 18.3485 16.4957 18.113L16.7847 17.7838C16.914 17.6365 17.0777 17.5056 17.2126 17.3693C17.5167 17.0608 18.1868 16.5926 18.5363 16.3874C19.7527 15.6727 20.9058 15.3532 22.2735 15.0943C22.6918 15.0144 23.5147 14.9015 23.9398 14.8781C24.138 14.8671 24.3251 14.8368 24.5301 14.8354C24.7228 14.834 25.0475 14.7927 25.3172 14.7927C25.4067 14.7927 25.4314 14.7789 25.5126 14.7775C25.5828 14.7762 25.6543 14.7789 25.7245 14.7789C25.8057 14.7775 25.8305 14.7638 25.9199 14.7638L29.1287 14.75V14.75ZM33.4232 33.592V23.4259C33.4232 23.3295 33.4879 23.2428 33.5773 23.2428H35.8395C35.9289 23.2428 35.9936 23.3295 35.9936 23.4259V33.592C35.9936 33.6925 35.9028 33.7613 35.7968 33.7613H33.6186C33.5127 33.7613 33.4218 33.6925 33.4218 33.592H33.4232ZM21.9171 33.7613H19.7252C19.6275 33.7613 19.5422 33.7021 19.5422 33.6071V23.3984C19.5422 23.3158 19.6151 23.2442 19.6963 23.2442C22.0465 23.2442 24.4311 23.2579 26.7772 23.2442L27.2409 23.2579C27.3165 23.2593 27.3234 23.2703 27.395 23.2731L27.988 23.313C28.0954 23.324 28.182 23.3323 28.2811 23.3433C28.4641 23.364 28.6623 23.3943 28.837 23.4342C29.9475 23.6835 30.5859 24.0291 31.0111 25.1116C31.3661 26.0136 31.4005 27.5367 31.4005 28.5751V33.5947C31.4005 33.6952 31.3097 33.7641 31.2037 33.7641H29.0255C28.7779 33.7641 28.8288 33.5121 28.8288 33.2725V28.436C28.8288 27.7433 28.8453 26.6663 28.4091 26.0852C27.9784 25.5109 27.0303 25.4269 26.2997 25.4269H22.2955C22.0781 25.4269 22.0988 25.6335 22.0988 25.7643C22.1001 26.6181 22.1166 33.5837 22.0919 33.6594C22.0822 33.6884 22.0506 33.7242 22.0286 33.7366C22.0024 33.7517 21.9598 33.7641 21.9158 33.7641L21.9171 33.7613Z" fill="#6D6D6D"/>
</svg>
