<svg width="70" height="24" viewBox="0 0 70 24" fill="none" xmlns="http://www.w3.org/2000/svg">
<path d="M69.9568 5.97579C69.005 0.56701 52.5834 -1.12091 33.2767 2.20559C25.1686 3.60333 17.8474 5.66492 12.146 7.98425C13.0218 8.00322 13.6713 8.20196 14.066 8.59151C14.3745 8.89721 14.5304 9.31678 14.5304 9.83951V10.376H12.6372V9.9023C12.6372 9.50758 12.3981 9.26295 11.9745 9.26295C11.6185 9.26295 11.3992 9.42201 11.3284 9.7353C11.3047 9.85915 11.3073 9.98653 11.3361 10.1093C11.5387 10.9288 14.3498 11.4377 14.6556 12.95C14.6957 13.1446 14.75 13.5611 14.6643 14.1569C14.4889 15.3766 13.406 15.8473 12.0275 15.8473C10.1033 15.8473 9.32162 14.9453 9.32162 13.7018L9.32301 13.1136H11.3525L11.3535 13.8464C11.3535 14.2584 11.6562 14.4858 12.0683 14.4858C12.4587 14.4858 12.6868 14.3301 12.7655 14.012C12.8022 13.8657 12.8182 13.6501 12.7516 13.4852C12.3761 12.5529 9.75115 12.1174 9.42796 10.61C9.35579 10.2711 9.34986 9.9827 9.40983 9.61799C9.44059 9.43721 9.49718 9.26167 9.57788 9.09664C3.25378 12.0236 -0.445701 15.2441 0.0431008 18.0248C0.995951 23.4343 17.4172 25.1205 36.7235 21.794C45.2102 20.332 52.84 18.1435 58.6467 15.691C58.5626 15.6951 58.4811 15.7041 58.3939 15.7041C57.0725 15.7041 55.8927 15.2141 55.7703 13.8775C55.7487 13.6342 55.7449 13.5324 55.7442 13.3937L55.7449 10.3208C55.7449 10.1883 55.7606 9.95578 55.7756 9.83571C55.9321 8.54389 56.9641 8.01116 58.3946 8.01116C59.5016 8.01116 60.8588 8.32549 61.0081 9.83674C61.0279 10.0265 61.0258 10.2291 61.0255 10.2956V10.5858H59.1135V10.1528C59.1135 10.1435 59.1107 9.98166 59.0898 9.88056C59.0584 9.72633 58.9256 9.36888 58.381 9.36888C57.843 9.36888 57.7036 9.72702 57.6687 9.88091C57.6488 9.96544 57.6394 10.0869 57.6394 10.2215V13.5611C57.6377 13.677 57.6436 13.7677 57.6555 13.8343C57.6649 13.8868 57.7615 14.3471 58.3876 14.3471C59.0093 14.3471 59.1055 13.8868 59.1142 13.8343C59.1306 13.7439 59.1327 13.6363 59.132 13.5611V12.5263H58.3796V11.4118H61.0401V13.3944C61.0394 13.5293 61.0373 13.629 61.0143 13.8775C60.9823 14.228 60.8707 14.5247 60.6957 14.7783C66.8538 11.8845 70.4393 8.71607 69.9568 5.97579ZM19.8954 15.5619L18.9268 9.04903H18.892L17.8987 15.5619H15.8573L17.2303 8.2068H20.5609L21.9255 15.5619H19.8954ZM29.7139 15.5619L29.669 9.17497H29.6362L28.4351 15.5619H26.5193L25.3241 9.17497H25.29L25.2464 15.5619H23.348L23.5126 8.2068H26.566L27.4551 13.6704H27.4986L28.3901 8.2068H31.4422L31.606 15.5619H29.7139ZM38.6536 14.1366C38.4493 15.5612 37.039 15.8104 36.0422 15.8104C34.3872 15.8104 33.3636 15.1103 33.3636 13.6856L33.3646 13.1046H35.3697L35.3711 13.8285C35.3711 14.2215 35.651 14.462 36.0833 14.462C36.4689 14.462 36.6949 14.3088 36.7733 13.9941C36.8096 13.8474 36.8246 13.6335 36.7604 13.472C36.3909 12.5574 33.7865 12.1092 33.4699 10.6252C33.3974 10.2887 33.3921 10.0031 33.4518 9.64214C33.6721 8.29685 34.9767 8.01737 36.0269 8.01737C36.9661 8.01737 37.6498 8.22025 38.0598 8.62601C38.3656 8.92896 38.5204 9.34472 38.5204 9.86193V10.3926H36.6454V9.92438C36.6454 9.52345 36.394 9.29159 35.9899 9.29159C35.6315 9.29159 35.4146 9.44927 35.3435 9.75946C35.3204 9.88203 35.3235 10.008 35.3526 10.1293C35.5534 10.945 38.3398 11.4436 38.6449 12.9417C38.6842 13.1329 38.7383 13.5431 38.6536 14.1366ZM45.5979 13.4682C45.6007 13.6063 45.5871 13.8819 45.5794 13.9527C45.4651 15.1644 44.5893 15.7803 42.9831 15.7803C41.3706 15.7803 40.4941 15.1644 40.3804 13.9527C40.3675 13.792 40.3614 13.6308 40.3619 13.4696V8.20507H42.2802V13.6356C42.2781 13.757 42.2844 13.8468 42.2966 13.9092C42.3203 14.03 42.4416 14.4219 42.9831 14.4219C43.5228 14.4219 43.6441 14.0296 43.6695 13.9106C43.6803 13.8464 43.687 13.7522 43.687 13.6352V8.20507H45.5979V13.4682ZM53.8626 15.4871H51.1933L49.4016 9.66112H49.3716L49.471 15.4871H47.6106V8.2068H50.3918L52.0478 13.8033H52.0866L51.9886 8.2068H53.8626V15.4871Z" fill="#6D6D6D"/>
</svg>
