<svg width="32" height="33" viewBox="0 0 32 33" fill="none" xmlns="http://www.w3.org/2000/svg">
<g clip-path="url(#clip0_520_4421)">
<path d="M16 10.6929V16.0394L18.6667 18.7126" stroke="#A3ADFF" stroke-linecap="round" stroke-linejoin="round"/>
<path d="M4.06665 14.7027C4.36544 11.7622 5.73367 9.03485 7.91029 7.04108C10.0869 5.04731 12.9196 3.92663 15.8678 3.89288C18.8161 3.85912 21.6735 4.91464 23.895 6.85805C26.1165 8.80147 27.5465 11.4967 27.9122 14.4296C28.2779 17.3625 27.5537 20.3277 25.8778 22.7595C24.2019 25.1913 21.6915 26.9195 18.8257 27.6143C15.9599 28.3091 12.9392 27.9219 10.34 26.5265C7.74076 25.1312 5.74494 22.8255 4.73332 20.0492M4.06665 26.7323V20.0492H10.7333" stroke="#A3ADFF" stroke-linecap="round" stroke-linejoin="round"/>
</g>
<defs>
<clipPath id="clip0_520_4421">
<rect width="32" height="32.079" fill="white"/>
</clipPath>
</defs>
</svg>
