<svg width="40" height="16" viewBox="0 0 40 16" fill="none" xmlns="http://www.w3.org/2000/svg">
<path d="M7.30954 2.05862C6.84079 2.60069 6.09079 3.02703 5.34079 2.96612C5.24704 2.23525 5.61579 1.45565 6.04704 0.980587C6.51579 0.426342 7.33454 0.030453 8.00329 0C8.07829 0.755234 7.77204 1.50438 7.30954 2.05862ZM7.99079 3.1062C6.90329 3.0453 5.97204 3.70917 5.45954 3.70917C4.93454 3.70917 4.14704 3.13666 3.28454 3.15493C2.16579 3.1732 1.12829 3.78835 0.55954 4.76894C-0.61546 6.7362 0.25329 9.64142 1.39079 11.2432C1.94704 12.035 2.60954 12.906 3.48454 12.8755C4.31579 12.8451 4.64079 12.3517 5.64079 12.3517C6.64704 12.3517 6.94079 12.8755 7.81579 12.8633C8.72204 12.8451 9.29079 12.0716 9.84704 11.2798C10.4783 10.3784 10.7408 9.50742 10.7533 9.4587C10.7345 9.44043 9.00329 8.79482 8.98454 6.84583C8.96579 5.21355 10.3533 4.44005 10.4158 4.39132C9.63454 3.25847 8.41579 3.13666 7.99079 3.1062ZM14.2658 0.901409V12.772H16.1595V8.71564H18.7783C21.172 8.71564 22.847 7.11382 22.847 4.79939C22.847 2.48496 21.197 0.901409 18.8408 0.901409H14.2658ZM16.1595 2.45451H18.3408C19.9845 2.45451 20.922 3.30719 20.922 4.80548C20.922 6.30377 19.9845 7.16863 18.3345 7.16863H16.1595V2.45451ZM26.297 12.8633C27.4845 12.8633 28.5845 12.2786 29.0845 11.3468H29.122V12.772H30.872V6.8641C30.872 5.15265 29.4658 4.04416 27.3033 4.04416C25.297 4.04416 23.8095 5.16483 23.7533 6.69966H25.4595C25.6033 5.96879 26.297 5.48763 27.247 5.48763C28.4033 5.48763 29.0533 6.01142 29.0533 6.97983V7.63761L26.6908 7.77769C24.497 7.9056 23.3095 8.78264 23.3095 10.3053C23.3158 11.8401 24.5408 12.8633 26.297 12.8633ZM26.8095 11.4564C25.8033 11.4564 25.1595 10.9813 25.1595 10.2627C25.1595 9.51351 25.7783 9.08108 26.9595 9.01408L29.0595 8.88618V9.55615C29.0595 10.6646 28.0908 11.4564 26.8095 11.4564ZM33.2158 16C35.0595 16 35.9283 15.3118 36.6845 13.2349L40.0033 4.15988H38.0783L35.8533 11.1702H35.8158L33.5908 4.15988H31.6158L34.8158 12.8024L34.6408 13.3262C34.3533 14.2155 33.8845 14.5626 33.047 14.5626C32.897 14.5626 32.6095 14.5443 32.4908 14.5322V15.9574C32.6033 15.9817 33.072 16 33.2158 16Z" fill="white"/>
</svg>
