<svg width="40" height="41" viewBox="0 0 40 41" fill="none" xmlns="http://www.w3.org/2000/svg">
<path d="M6.66683 35.5H33.3335C35.1745 35.5 36.6668 34.0077 36.6668 32.1667V14.8333C36.6668 12.9924 35.1745 11.5 33.3335 11.5H28.3335L24.1668 5.5H15.8335L11.6668 11.5H6.66683C4.82588 11.5 3.3335 12.9924 3.3335 14.8333V32.1667C3.3335 34.0077 4.82588 35.5 6.66683 35.5Z" stroke="#333333" stroke-linecap="round" stroke-linejoin="round"/>
<path d="M20.0002 28.8333C23.6821 28.8333 26.6668 25.8486 26.6668 22.1667C26.6668 18.4848 23.6821 15.5 20.0002 15.5C16.3183 15.5 13.3335 18.4848 13.3335 22.1667C13.3335 25.8486 16.3183 28.8333 20.0002 28.8333Z" stroke="#333333" stroke-linecap="round" stroke-linejoin="round"/>
</svg>
