<svg width="32" height="13" viewBox="0 0 32 13" fill="none" xmlns="http://www.w3.org/2000/svg">
<path d="M32.0013 3.16708L27.8242 12.5001H26.5322L28.0842 9.23408L25.3342 3.16608H26.6932L28.6832 7.81708H28.7092L30.6362 3.16608L32.0013 3.16708ZM14.6473 6.05308V9.83408H13.3343V0.501076H16.8082C17.6362 0.480076 18.4382 0.767076 19.0582 1.30808C19.6732 1.81308 20.0112 2.52708 20.0012 3.28208C20.0112 4.04808 19.6622 4.78208 19.0582 5.26108C18.4542 5.79208 17.7042 6.05308 16.8082 6.05308H14.6473ZM14.6423 1.65208V4.90708H16.8403C17.3242 4.92308 17.7982 4.74608 18.1372 4.42808C18.4762 4.12608 18.6632 3.71408 18.6632 3.28708C18.6632 2.85508 18.4752 2.44308 18.1372 2.14608C17.7882 1.81308 17.3193 1.63608 16.8403 1.65108L14.6423 1.65208ZM22.6312 3.16708C23.4642 3.16708 24.1262 3.40108 24.6102 3.86508C25.0942 4.32908 25.3342 4.96408 25.3342 5.77108V9.63008H24.2512V8.76008H24.2042C23.7352 9.47408 23.1152 9.83308 22.3392 9.83308C21.6722 9.83308 21.1202 9.63008 20.6722 9.21808C20.2342 8.83308 19.9902 8.27008 20.0002 7.68708C20.0002 7.04108 20.2342 6.52608 20.7083 6.14008C21.1772 5.76008 21.8072 5.56708 22.5932 5.56708C23.2652 5.56708 23.8172 5.69708 24.2492 5.95208V5.68108C24.2542 5.28508 24.0823 4.90508 23.7852 4.63908C23.4882 4.36308 23.0972 4.20708 22.6912 4.21208C22.0613 4.21208 21.5613 4.48808 21.1912 5.04008L20.1962 4.39408C20.7432 3.57608 21.5553 3.16508 22.6283 3.16508L22.6312 3.16708ZM21.1682 7.71408C21.1632 8.01608 21.3032 8.29708 21.5432 8.48008C21.7932 8.68308 22.1063 8.79307 22.4233 8.78708C22.8973 8.78708 23.3552 8.58908 23.6943 8.24008C24.0532 7.90708 24.2572 7.43808 24.2572 6.94808C23.9032 6.65608 23.4132 6.51008 22.7832 6.51008C22.3192 6.51008 21.9392 6.62508 21.6322 6.85408C21.3253 7.08808 21.1682 7.37008 21.1682 7.71308V7.71408ZM5.44425 0.501076C6.78825 0.485076 8.09025 0.980076 9.08525 1.89208L7.53325 3.41308C6.96525 2.88708 6.21525 2.60008 5.44425 2.61608C4.05925 2.62108 2.83525 3.50708 2.38725 4.81408C2.15825 5.47508 2.15825 6.19408 2.38725 6.85608C2.83525 8.16308 4.05925 9.04908 5.44425 9.05408C6.17825 9.05408 6.80925 8.87208 7.29825 8.54908C7.86625 8.17408 8.26225 7.59108 8.38125 6.92408H5.44325V4.87208H10.5732C10.6362 5.23108 10.6673 5.59108 10.6673 5.95508C10.6673 7.58008 10.0732 8.95508 9.04725 9.88208C8.14625 10.6951 6.91225 11.1681 5.44325 11.1681C3.39625 11.1781 1.52125 10.0431 0.57825 8.23008C-0.19275 6.72508 -0.19275 4.94408 0.57825 3.43808C1.52125 1.62508 3.39625 0.490077 5.43725 0.500077L5.44425 0.501076Z" fill="white"/>
</svg>
